<?xml version="1.0" encoding="iso-8859-1"?>
<!-- Uploaded to: SVG Repo, www.svgrepo.com, Generator: SVG Repo Mixer Tools -->
<svg height="800px" width="800px" version="1.1" id="Layer_1" xmlns="http://www.w3.org/2000/svg" xmlns:xlink="http://www.w3.org/1999/xlink" 
	 viewBox="0 0 392.533 392.533" xml:space="preserve">
<path style="fill:#56ACE0;" d="M169.952,21.721H43.245v13.446h43.442c6.012,0,10.925,4.848,10.925,10.925
	s-4.848,10.925-10.925,10.925H43.181v19.394h17.713c6.012,0,10.925,4.848,10.925,10.925c0,6.012-4.848,10.925-10.925,10.925H43.181
	v13.446h126.707V21.721H169.952z"/>
<polygon style="fill:#FFFFFF;" points="39.948,133.366 26.437,170.537 186.696,170.537 173.185,133.366 "/>
<g>
	<path style="fill:#194F82;" d="M212.49,177.713l-20.816-57.083V10.925C191.674,4.913,186.825,0,180.748,0H32.32
		c-6.012,0-10.925,4.848-10.925,10.925V120.63L0.643,177.713c-2.521,7.111,2.715,14.61,10.279,14.61H202.34
		C209.775,192.323,215.14,184.824,212.49,177.713z M26.437,170.537l13.511-37.172h133.301l13.511,37.172H26.437L26.437,170.537z
		 M43.181,98.133h17.713c6.012,0,10.925-4.848,10.925-10.925c0-6.012-4.848-10.925-10.925-10.925H43.181V56.889h43.442
		c6.012,0,10.925-4.848,10.925-10.925c0-6.012-4.848-10.925-10.925-10.925H43.181V21.592h126.707v89.859H43.181
		C43.181,111.451,43.181,98.133,43.181,98.133z"/>
	<path style="fill:#194F82;" d="M325.686,55.725h-99.297c-6.012,0-10.925,4.848-10.925,10.925s4.913,10.925,10.925,10.925h88.372
		v88.372c0,6.012,4.849,10.925,10.925,10.925c6.012,0,10.925-4.848,10.925-10.925V66.586
		C336.611,60.574,331.762,55.725,325.686,55.725z"/>
	<path style="fill:#194F82;" d="M119.593,314.893H77.508V236.8c0-6.012-4.848-10.925-10.925-10.925s-10.925,4.848-10.925,10.925
		v89.018c0,6.012,4.848,10.925,10.925,10.925h53.01c6.012,0,10.925-4.848,10.925-10.925S125.67,314.893,119.593,314.893z"/>
</g>
<path style="fill:#FFC10D;" d="M352.966,327.693c-5.883-1.099-9.826-6.659-8.792-12.541c1.616-13.382-10.214-22.238-21.85-17.713
	c-4.784,1.939-10.279,0.129-13.123-4.202c-9.244-14.093-24.889-22.497-41.632-22.497c-26.376,0-48.226,20.558-49.778,46.804
	c-0.84,8.404-9.051,12.283-15.838,9.05c-3.168-1.616-6.659-2.392-10.343-2.392c-12.735,0-23.208,10.343-23.208,23.208
	c0,12.8,10.343,23.208,23.208,23.208h157.479c11.96,0,21.657-9.762,21.657-21.657C370.68,338.554,363.245,329.632,352.966,327.693z"
	/>
<path style="fill:#194F82;" d="M366.025,309.01c-2.78-23.208-23.79-37.43-43.442-34.069c-13.511-16.356-33.616-25.859-55.143-25.859
	c-33.293,0-61.608,22.82-69.495,53.915c-2.069-0.323-4.267-0.453-6.465-0.453c-24.824,0-44.994,20.17-44.994,44.994
	c0,24.824,20.234,44.994,45.059,44.994h157.479c23.984,0,43.507-19.459,43.507-43.507
	C392.465,331.249,381.799,315.733,366.025,309.01z M348.958,370.683H191.544c-12.735,0-23.208-10.343-23.208-23.208
	c0-12.8,10.343-23.208,23.208-23.208c3.685,0,7.176,0.84,10.343,2.392c6.723,3.232,14.933-0.711,15.838-9.051
	c1.552-26.246,23.402-46.804,49.778-46.804c16.873,0,32.453,8.404,41.632,22.497c2.844,4.331,8.339,6.012,13.123,4.202
	c11.636-4.59,23.467,4.331,21.851,17.713c-1.034,5.883,2.909,11.442,8.792,12.541c10.214,1.875,17.713,10.796,17.713,21.269
	C370.68,360.921,360.918,370.683,348.958,370.683z"/>
</svg>